<svg width="390" height="62" viewBox="0 0 390 62" fill="none" xmlns="http://www.w3.org/2000/svg">
<path d="M25.051 49.315C20.3577 49.315 16.1337 48.3337 12.379 46.371C8.66705 44.3657 5.74438 41.5923 3.61105 38.051C1.47771 34.5097 0.411047 30.499 0.411047 26.019C0.411047 21.539 1.47771 17.5283 3.61105 13.987C5.74438 10.4457 8.66705 7.69367 12.379 5.731C16.1337 3.72567 20.3577 2.723 25.051 2.723C29.147 2.723 32.8377 3.44833 36.123 4.899C39.4084 6.34967 42.139 8.44033 44.315 11.171L36.251 18.467C33.3497 14.9683 29.8297 13.219 25.691 13.219C23.259 13.219 21.083 13.7523 19.163 14.819C17.2857 15.8857 15.8137 17.4003 14.747 19.363C13.723 21.283 13.211 23.5017 13.211 26.019C13.211 28.5363 13.723 30.7763 14.747 32.739C15.8137 34.659 17.2857 36.1523 19.163 37.219C21.083 38.2857 23.259 38.819 25.691 38.819C29.8297 38.819 33.3497 37.0697 36.251 33.571L44.315 40.867C42.139 43.5977 39.4084 45.6883 36.123 47.139C32.8377 48.5897 29.147 49.315 25.051 49.315ZM60.848 13.155C66.608 13.155 71.0027 14.4777 74.032 17.123C77.0614 19.7257 78.576 23.7363 78.576 29.155V48.419H67.248V43.939C65.4987 47.3097 62.0854 48.995 57.008 48.995C54.32 48.995 51.9947 48.5257 50.032 47.587C48.0694 46.6483 46.576 45.3897 45.552 43.811C44.5707 42.1897 44.08 40.355 44.08 38.307C44.08 35.0217 45.3387 32.483 47.856 30.691C50.3734 28.8563 54.256 27.939 59.504 27.939H66.416C66.2027 24.2697 63.7494 22.435 59.056 22.435C57.392 22.435 55.7067 22.7123 54 23.267C52.2934 23.779 50.8427 24.5043 49.648 25.443L45.552 17.187C47.472 15.907 49.7974 14.9257 52.528 14.243C55.3014 13.5177 58.0747 13.155 60.848 13.155ZM60.4 41.315C61.808 41.315 63.0454 40.9737 64.112 40.291C65.1787 39.6083 65.9467 38.6057 66.416 37.283V34.275H61.168C57.6267 34.275 55.856 35.4483 55.856 37.795C55.856 38.8617 56.2614 39.715 57.072 40.355C57.8827 40.995 58.992 41.315 60.4 41.315ZM105.644 13.155C109.953 13.155 113.409 14.435 116.012 16.995C118.657 19.555 119.98 23.4163 119.98 28.579V48.419H107.82V30.563C107.82 25.827 105.921 23.459 102.124 23.459C100.033 23.459 98.3475 24.1417 97.0675 25.507C95.8302 26.8723 95.2115 28.9203 95.2115 31.651V48.419H83.0515V13.731H94.6355V17.507C96.0009 16.099 97.6222 15.0323 99.4995 14.307C101.377 13.539 103.425 13.155 105.644 13.155ZM161.778 0.931V48.419H150.194V44.963C147.933 47.651 144.541 48.995 140.018 48.995C136.861 48.995 133.981 48.2697 131.378 46.819C128.775 45.3257 126.706 43.2137 125.17 40.483C123.677 37.7523 122.93 34.595 122.93 31.011C122.93 27.427 123.677 24.291 125.17 21.603C126.706 18.8723 128.775 16.7817 131.378 15.331C133.981 13.8803 136.861 13.155 140.018 13.155C144.157 13.155 147.357 14.3497 149.618 16.739V0.931H161.778ZM142.578 39.331C144.669 39.331 146.397 38.6057 147.762 37.155C149.127 35.6617 149.81 33.6137 149.81 31.011C149.81 28.451 149.127 26.4457 147.762 24.995C146.439 23.5443 144.711 22.819 142.578 22.819C140.445 22.819 138.695 23.5443 137.33 24.995C135.965 26.4457 135.282 28.451 135.282 31.011C135.282 33.6137 135.965 35.6617 137.33 37.155C138.695 38.6057 140.445 39.331 142.578 39.331ZM202.946 13.731L187.97 49.827C186.22 54.0937 184.087 57.0803 181.57 58.787C179.052 60.5363 175.98 61.411 172.354 61.411C170.519 61.411 168.663 61.1123 166.786 60.515C164.951 59.9603 163.458 59.2137 162.306 58.275L166.53 49.763C167.212 50.403 168.023 50.8937 168.962 51.235C169.943 51.619 170.924 51.811 171.906 51.811C173.058 51.811 173.996 51.5763 174.722 51.107C175.49 50.6377 176.13 49.891 176.642 48.867L161.794 13.731H174.274L182.786 34.915L191.362 13.731H202.946ZM203.465 3.619H216.137V38.371H237.513V48.419H203.465V3.619ZM254.036 13.155C259.796 13.155 264.19 14.4777 267.22 17.123C270.249 19.7257 271.764 23.7363 271.764 29.155V48.419H260.436V43.939C258.686 47.3097 255.273 48.995 250.196 48.995C247.508 48.995 245.182 48.5257 243.22 47.587C241.257 46.6483 239.764 45.3897 238.74 43.811C237.758 42.1897 237.268 40.355 237.268 38.307C237.268 35.0217 238.526 32.483 241.044 30.691C243.561 28.8563 247.444 27.939 252.692 27.939H259.604C259.39 24.2697 256.937 22.435 252.244 22.435C250.58 22.435 248.894 22.7123 247.188 23.267C245.481 23.779 244.03 24.5043 242.836 25.443L238.74 17.187C240.66 15.907 242.985 14.9257 245.716 14.243C248.489 13.5177 251.262 13.155 254.036 13.155ZM253.588 41.315C254.996 41.315 256.233 40.9737 257.3 40.291C258.366 39.6083 259.134 38.6057 259.604 37.283V34.275H254.356C250.814 34.275 249.044 35.4483 249.044 37.795C249.044 38.8617 249.449 39.715 250.26 40.355C251.07 40.995 252.18 41.315 253.588 41.315ZM298.831 13.155C303.14 13.155 306.596 14.435 309.199 16.995C311.844 19.555 313.167 23.4163 313.167 28.579V48.419H301.007V30.563C301.007 25.827 299.108 23.459 295.311 23.459C293.22 23.459 291.535 24.1417 290.255 25.507C289.018 26.8723 288.399 28.9203 288.399 31.651V48.419H276.239V13.731H287.823V17.507C289.188 16.099 290.81 15.0323 292.687 14.307C294.564 13.539 296.612 13.155 298.831 13.155ZM354.966 0.931V48.419H343.382V44.963C341.12 47.651 337.728 48.995 333.206 48.995C330.048 48.995 327.168 48.2697 324.566 46.819C321.963 45.3257 319.894 43.2137 318.358 40.483C316.864 37.7523 316.118 34.595 316.118 31.011C316.118 27.427 316.864 24.291 318.358 21.603C319.894 18.8723 321.963 16.7817 324.566 15.331C327.168 13.8803 330.048 13.155 333.206 13.155C337.344 13.155 340.544 14.3497 342.806 16.739V0.931H354.966ZM335.766 39.331C337.856 39.331 339.584 38.6057 340.95 37.155C342.315 35.6617 342.998 33.6137 342.998 31.011C342.998 28.451 342.315 26.4457 340.95 24.995C339.627 23.5443 337.899 22.819 335.766 22.819C333.632 22.819 331.883 23.5443 330.518 24.995C329.152 26.4457 328.47 28.451 328.47 31.011C328.47 33.6137 329.152 35.6617 330.518 37.155C331.883 38.6057 333.632 39.331 335.766 39.331ZM372.197 48.995C369.296 48.995 366.437 48.675 363.621 48.035C360.805 47.3523 358.544 46.4777 356.837 45.411L360.485 37.091C362.064 38.0723 363.941 38.8617 366.117 39.459C368.293 40.0137 370.448 40.291 372.581 40.291C374.544 40.291 375.93 40.099 376.741 39.715C377.594 39.2883 378.021 38.691 378.021 37.923C378.021 37.155 377.509 36.6217 376.485 36.323C375.504 35.9817 373.925 35.6617 371.749 35.363C368.976 35.0217 366.608 34.5737 364.645 34.019C362.725 33.4643 361.061 32.4403 359.653 30.947C358.245 29.4537 357.541 27.363 357.541 24.675C357.541 22.4563 358.202 20.4937 359.525 18.787C360.848 17.0377 362.768 15.6723 365.285 14.691C367.845 13.667 370.896 13.155 374.437 13.155C376.954 13.155 379.45 13.411 381.925 13.923C384.4 14.435 386.469 15.1603 388.133 16.099L384.485 24.355C381.413 22.6483 378.085 21.795 374.501 21.795C372.581 21.795 371.173 22.0297 370.277 22.499C369.381 22.9257 368.933 23.5017 368.933 24.227C368.933 25.0377 369.424 25.6137 370.405 25.955C371.386 26.2537 373.008 26.5737 375.269 26.915C378.128 27.3417 380.496 27.8323 382.373 28.387C384.25 28.9417 385.872 29.9657 387.237 31.459C388.645 32.9097 389.349 34.9577 389.349 37.603C389.349 39.779 388.688 41.7417 387.365 43.491C386.042 45.1977 384.08 46.5417 381.477 47.523C378.917 48.5043 375.824 48.995 372.197 48.995Z" fill="url(#paint0_linear_1_3)"/>
<defs>
<linearGradient id="paint0_linear_1_3" x1="73.7351" y1="25.419" x2="391.235" y2="48.419" gradientUnits="userSpaceOnUse">
<stop stop-color="#67EF74"/>
<stop offset="0.494792" stop-color="#FFB13C"/>
<stop offset="1" stop-color="#CC60FF"/>
</linearGradient>
</defs>
</svg>
