<?xml version="1.0" standalone="no"?>
<!DOCTYPE svg PUBLIC "-//W3C//DTD SVG 20010904//EN"
 "http://www.w3.org/TR/2001/REC-SVG-20010904/DTD/svg10.dtd">
<svg version="1.0" xmlns="http://www.w3.org/2000/svg"
 width="512.000000pt" height="512.000000pt" viewBox="0 0 512.000000 512.000000"
 preserveAspectRatio="xMidYMid meet">

<g transform="translate(0.000000,512.000000) scale(0.100000,-0.100000)"
fill="#000000" stroke="none">
<path d="M4095 2625 c33 -90 30 -162 -9 -230 -36 -60 -53 -73 -304 -224 l-223
-135 148 -148 c98 -98 154 -147 164 -145 24 6 433 253 468 283 46 38 81 118
81 184 0 89 -30 136 -191 295 -78 77 -138 131 -134 120z"/>
<path d="M2366 2479 c-19 -15 -26 -30 -26 -56 0 -29 10 -45 62 -99 34 -36 72
-67 85 -70 38 -10 72 4 89 37 22 43 7 73 -71 148 -70 67 -95 74 -139 40z"/>
<path d="M2050 1982 c-17 -13 -25 -35 -31 -76 -13 -100 -74 -158 -180 -171
-56 -7 -82 -32 -81 -77 1 -39 40 -78 77 -78 45 0 130 22 165 43 100 58 160
151 168 260 4 61 2 70 -18 92 -28 30 -69 32 -100 7z"/>
<path d="M1286 1399 c-19 -15 -26 -29 -26 -57 0 -32 9 -45 69 -104 54 -53 76
-68 99 -68 45 0 76 30 76 75 0 33 -8 45 -71 106 -77 76 -102 84 -147 48z"/>
<path d="M897 440 c-210 -126 -238 -137 -341 -128 -29 2 -73 14 -97 26 -38 19
-23 1 107 -128 177 -175 221 -202 332 -202 48 -1 82 5 115 20 45 20 361 205
382 224 6 5 -49 67 -140 158 -82 83 -152 150 -155 150 -3 -1 -94 -54 -203
-120z"/>
</g>
</svg>
